<?xml version="1.0" encoding="UTF-8"?>
<svg version="1.1" xmlns="http://www.w3.org/2000/svg" width="1280" height="1280">
<path d="M0 0 C8.7479008 8.22415916 12.21534955 17.53256255 16.1640625 28.58203125 C16.80093534 30.32589692 17.43932404 32.06920961 18.07910156 33.81201172 C19.4629449 37.59064677 20.836686 41.37275182 22.203125 45.15771484 C24.52424611 51.58386354 26.87398204 57.99937615 29.2265625 64.4140625 C32.50841574 73.36803813 35.78226179 82.32488024 39.046875 91.28515625 C46.69724742 112.28252202 54.40200389 133.25961149 62.14178467 154.22418213 C62.8956659 156.26636325 63.64929501 158.30863747 64.40264893 160.35101318 C65.46543293 163.23174388 66.5295558 166.11197752 67.59375 168.9921875 C67.92722443 169.89761292 68.26069885 170.80303833 68.60427856 171.73590088 C70.05013049 175.64887572 71.51093381 179.55090928 73.06738281 183.42138672 C73.53499023 184.58686035 74.00259766 185.75233398 74.484375 186.953125 C74.88672363 187.92693115 75.28907227 188.9007373 75.70361328 189.90405273 C76.4140625 192.26953125 76.4140625 192.26953125 75.4140625 195.26953125 C58.5840625 195.26953125 41.7540625 195.26953125 24.4140625 195.26953125 C21.9911812 189.81804832 19.84220627 184.92375352 18.0546875 179.3359375 C17.66152344 178.11068359 17.26835938 176.88542969 16.86328125 175.62304688 C16.26966797 173.74649414 16.26966797 173.74649414 15.6640625 171.83203125 C15.24909292 170.54088861 14.83373092 169.24987202 14.41796875 167.95898438 C11.4140625 158.54308555 11.4140625 158.54308555 11.4140625 156.26953125 C-16.3059375 156.26953125 -44.0259375 156.26953125 -72.5859375 156.26953125 C-74.0709375 161.71453125 -74.0709375 161.71453125 -75.5859375 167.26953125 C-76.30599395 169.591614 -77.04516209 171.90795361 -77.8125 174.21484375 C-78.204375 175.39304687 -78.59625 176.57125 -79 177.78515625 C-79.59941406 179.57179688 -79.59941406 179.57179688 -80.2109375 181.39453125 C-80.61828125 182.62429688 -81.025625 183.8540625 -81.4453125 185.12109375 C-82.02925781 186.8690625 -82.02925781 186.8690625 -82.625 188.65234375 C-82.97771973 189.70824707 -83.33043945 190.76415039 -83.69384766 191.85205078 C-84.5859375 194.26953125 -84.5859375 194.26953125 -85.5859375 195.26953125 C-87.4444003 195.37920657 -89.30704384 195.41863786 -91.16870117 195.43066406 C-92.36472458 195.44027161 -93.56074799 195.44987915 -94.79301453 195.45977783 C-96.75365593 195.46615265 -96.75365593 195.46615265 -98.75390625 195.47265625 C-100.10899354 195.47841224 -101.46408082 195.48416991 -102.81916809 195.4899292 C-105.67331318 195.50046152 -108.52742999 195.50628653 -111.3815918 195.50976562 C-115.00007096 195.51519199 -118.61816255 195.53908167 -122.23652172 195.56773758 C-125.04479458 195.58659429 -127.85297945 195.59158205 -130.6613102 195.5931015 C-132.63177001 195.59752245 -134.60218232 195.61607626 -136.57255554 195.6350708 C-152.83542927 195.59561532 -167.17666105 192.42644192 -179.171875 180.98828125 C-183.90631835 175.65628679 -187.19020158 169.49329492 -190.5859375 163.26953125 C-191.18196777 162.17898438 -191.77799805 161.0884375 -192.39208984 159.96484375 C-192.71516617 159.37369781 -193.03824249 158.78255188 -193.37110901 158.17349243 C-194.72453595 155.70049184 -196.08328456 153.2304237 -197.4413147 150.75994873 C-198.4520949 148.91070895 -199.44967651 147.05478975 -200.44604492 145.19775391 C-201.06713135 144.05870605 -201.68821777 142.9196582 -202.328125 141.74609375 C-202.8835498 140.71564941 -203.43897461 139.68520508 -204.01123047 138.62353516 C-205.43118059 135.98073118 -205.43118059 135.98073118 -208.5859375 135.26953125 C-211.09961805 135.18484955 -213.58463124 135.1535124 -216.09765625 135.171875 C-216.82588089 135.17328995 -217.55410553 135.1747049 -218.30439758 135.17616272 C-220.62745289 135.18175466 -222.95041138 135.19430563 -225.2734375 135.20703125 C-226.84960798 135.21204729 -228.42577998 135.21661002 -230.00195312 135.22070312 C-233.86331848 135.23172145 -237.72461158 135.24898051 -241.5859375 135.26953125 C-241.57118881 136.00646713 -241.55644012 136.74340302 -241.54124451 137.50267029 C-241.4034299 144.43357302 -241.27045509 151.36455334 -241.1429739 158.29565334 C-241.07725578 161.85935151 -241.00963895 165.42299293 -240.93774414 168.98657227 C-240.85525184 173.07949759 -240.78090794 177.17253504 -240.70703125 181.265625 C-240.66647865 183.19371254 -240.66647865 183.19371254 -240.62510681 185.16075134 C-240.60501053 186.34190018 -240.58491425 187.52304901 -240.56420898 188.73999023 C-240.54422348 189.78589828 -240.52423798 190.83180634 -240.50364685 191.90940857 C-240.5859375 194.26953125 -240.5859375 194.26953125 -241.5859375 195.26953125 C-243.08463798 195.36784271 -244.58792289 195.39751581 -246.08984375 195.39892578 C-247.52638306 195.40365402 -247.52638306 195.40365402 -248.99194336 195.40847778 C-250.03358643 195.40645355 -251.07522949 195.40442932 -252.1484375 195.40234375 C-253.21006104 195.40330048 -254.27168457 195.4042572 -255.36547852 195.40524292 C-257.61507222 195.40592489 -259.86466787 195.40406944 -262.11425781 195.39990234 C-265.57100821 195.39455435 -269.02762867 195.39984679 -272.484375 195.40625 C-274.66406279 195.40558922 -276.8437505 195.40430807 -279.0234375 195.40234375 C-280.06508057 195.40436798 -281.10672363 195.40639221 -282.17993164 195.40847778 C-283.13762451 195.40532562 -284.09531738 195.40217346 -285.08203125 195.39892578 C-285.92950928 195.39813019 -286.7769873 195.39733459 -287.65014648 195.39651489 C-289.5859375 195.26953125 -289.5859375 195.26953125 -290.5859375 194.26953125 C-290.68175572 192.73867286 -290.70781858 191.20339369 -290.70619202 189.66954041 C-290.70825401 188.17817314 -290.70825401 188.17817314 -290.71035767 186.65667725 C-290.70676239 185.55688538 -290.70316711 184.45709351 -290.69946289 183.32397461 C-290.69960892 182.17290726 -290.69975494 181.0218399 -290.6999054 179.83589172 C-290.69920568 176.01036734 -290.69141052 172.18489094 -290.68359375 168.359375 C-290.68172978 165.71521532 -290.68030578 163.07105529 -290.67930603 160.42689514 C-290.67619299 154.16537708 -290.66797998 147.90387639 -290.65795654 141.64236599 C-290.64679455 134.51551588 -290.64128474 127.38866495 -290.63626111 120.26180828 C-290.62579734 105.59770695 -290.60819843 90.93361934 -290.5859375 76.26953125 C-290.87488892 77.68105469 -290.87488892 77.68105469 -291.16967773 79.12109375 C-291.42950439 80.36632812 -291.68933105 81.6115625 -291.95703125 82.89453125 C-292.21154053 84.12429688 -292.4660498 85.3540625 -292.72827148 86.62109375 C-296.68441882 103.45020442 -307.54517886 118.0086088 -321.90625 127.453125 C-340.69343203 138.97273009 -360.18794313 139.59938922 -381.5859375 139.39453125 C-383.44009926 139.3844684 -385.29426639 139.37534846 -387.1484375 139.3671875 C-391.62774023 139.34546564 -396.10677703 139.31112345 -400.5859375 139.26953125 C-400.58149628 139.94160614 -400.57705505 140.61368103 -400.57247925 141.30612183 C-400.52834116 148.28104533 -400.49811083 155.25592938 -400.47607422 162.23095703 C-400.46599686 164.83644216 -400.4523348 167.44191594 -400.43505859 170.04736328 C-400.41088648 173.78551024 -400.3994719 177.5235081 -400.390625 181.26171875 C-400.38030243 182.43258026 -400.36997986 183.60344177 -400.35934448 184.80978394 C-400.35911789 186.43123825 -400.35911789 186.43123825 -400.35888672 188.08544922 C-400.3544455 189.04031219 -400.35000427 189.99517517 -400.34542847 190.97897339 C-400.5859375 193.26953125 -400.5859375 193.26953125 -402.5859375 195.26953125 C-404.60401917 195.51676941 -404.60401917 195.51676941 -407.11157227 195.51245117 C-408.04916885 195.5155278 -408.98676544 195.51860443 -409.95277405 195.52177429 C-410.96738205 195.51458878 -411.98199005 195.50740326 -413.02734375 195.5 C-414.06535629 195.49954178 -415.10336884 195.49908356 -416.1728363 195.49861145 C-418.36938621 195.49558708 -420.56593393 195.4876953 -422.76245117 195.4753418 C-426.13793472 195.45708805 -429.51314414 195.45483204 -432.88867188 195.45507812 C-435.01823156 195.45016302 -437.14778937 195.44433474 -439.27734375 195.4375 C-440.8022921 195.43583076 -440.8022921 195.43583076 -442.35804749 195.43412781 C-443.29249191 195.42774796 -444.22693634 195.4213681 -445.18969727 195.41479492 C-446.0163942 195.41098312 -446.84309113 195.40717133 -447.69483948 195.40324402 C-449.5859375 195.26953125 -449.5859375 195.26953125 -450.5859375 194.26953125 C-450.68592422 191.7046446 -450.7203465 189.1666206 -450.71292114 186.60119629 C-450.71526113 185.38203262 -450.71526113 185.38203262 -450.71764839 184.13823938 C-450.72166178 181.39357386 -450.71846744 178.64896289 -450.71533203 175.90429688 C-450.71668592 173.94520536 -450.71846578 171.98611409 -450.72064209 170.02702332 C-450.72521788 164.69040241 -450.72342627 159.35380075 -450.720263 154.01717949 C-450.71774015 148.44557517 -450.72007673 142.87397255 -450.72164917 137.30236816 C-450.72347109 127.94392601 -450.72106398 118.58549174 -450.71630859 109.22705078 C-450.71086593 98.39059712 -450.71262857 87.55416227 -450.718135 76.71770906 C-450.72266551 67.43197356 -450.72331698 58.14624374 -450.72069633 48.86050749 C-450.71913321 43.30656342 -450.71894074 37.7526282 -450.72223282 32.19868469 C-450.72511063 26.97852506 -450.72313751 21.75838979 -450.71733856 16.5382328 C-450.71601048 14.6164841 -450.71640589 12.69473337 -450.71860123 10.77298546 C-450.72131085 8.16125086 -450.71793393 5.54959567 -450.71292114 2.93786621 C-450.71515186 2.16716246 -450.71738259 1.39645871 -450.71968091 0.6024003 C-450.70008734 -4.61631891 -450.70008734 -4.61631891 -449.5859375 -5.73046875 C-446.74340989 -5.84173373 -443.92496133 -5.88787004 -441.08154297 -5.89160156 C-440.1886557 -5.89656647 -439.29576843 -5.90153137 -438.37582397 -5.90664673 C-435.40158326 -5.9213275 -432.42739611 -5.92808512 -429.453125 -5.93359375 C-427.38298542 -5.93934659 -425.31284585 -5.94510431 -423.2427063 -5.9508667 C-418.88624829 -5.96139769 -414.52980881 -5.96722455 -410.17333984 -5.97070312 C-404.62689396 -5.97614932 -399.0806984 -6.00008444 -393.53433037 -6.02867508 C-389.24796882 -6.04744127 -384.9616654 -6.05251475 -380.67526627 -6.054039 C-378.63341042 -6.05704182 -376.591555 -6.06498884 -374.54973984 -6.07822418 C-349.71839688 -6.22750446 -328.65592687 -1.78617472 -309.9296875 15.84375 C-301.07703989 25.00624028 -294.49773625 36.7965002 -291.5859375 49.26953125 C-290.64790676 37.26671608 -290.48916408 25.36534578 -290.5859375 13.33203125 C-290.61248184 9.9270873 -290.6324026 6.52219511 -290.6484375 3.1171875 C-290.66088501 1.95341331 -290.66088501 1.95341331 -290.67358398 0.76612854 C-290.68212033 -1.06628359 -290.63936572 -2.89881581 -290.5859375 -4.73046875 C-288.45447989 -6.86192636 -283.59043109 -5.88792268 -280.63842773 -5.89160156 C-279.69837891 -5.89656647 -278.75833008 -5.90153137 -277.78979492 -5.90664673 C-274.65803303 -5.92132898 -271.52632202 -5.92808548 -268.39453125 -5.93359375 C-266.21468606 -5.93934661 -264.03484089 -5.94510433 -261.85499573 -5.9508667 C-257.26734176 -5.9613982 -252.67970539 -5.96722468 -248.09204102 -5.97070312 C-242.25199638 -5.97614848 -236.41218958 -6.00008158 -230.57221889 -6.02867508 C-226.05849062 -6.04744413 -221.54481752 -6.05251491 -217.03105354 -6.054039 C-214.88117251 -6.05704133 -212.73129188 -6.06498665 -210.58144951 -6.07822418 C-184.31725813 -6.22820499 -162.70304339 -1.96664124 -142.8984375 16.45703125 C-127.82197379 32.18194501 -125.07460174 49.9716855 -125.30859375 70.76953125 C-125.81942692 88.53940964 -134.33547846 103.47248903 -147.05859375 115.6328125 C-148.57032684 116.97739461 -150.0959508 118.30667511 -151.640625 119.61328125 C-153.38226856 121.09612637 -154.9805452 122.64309767 -156.5859375 124.26953125 C-154.55721885 127.92656857 -152.51220182 131.57383676 -150.4519043 135.21313477 C-149.75404457 136.45116864 -149.06061816 137.69171282 -148.37182617 138.93481445 C-147.37807617 140.7264345 -146.36846812 142.50827175 -145.35546875 144.2890625 C-144.75323486 145.36260986 -144.15100098 146.43615723 -143.53051758 147.54223633 C-141.43449476 150.48193136 -139.84038264 151.76180784 -136.5859375 153.26953125 C-133.91740454 153.63178806 -131.44552321 153.86753556 -128.7734375 153.95703125 C-128.08056641 153.99119141 -127.38769531 154.02535156 -126.67382812 154.06054688 C-124.97840901 154.14239469 -123.28220292 154.2076549 -121.5859375 154.26953125 C-121.41111343 153.66335464 -121.23628937 153.05717804 -121.0561676 152.43263245 C-119.25493063 146.29506377 -117.21463363 140.29188898 -114.98828125 134.296875 C-114.64189606 133.35653412 -114.29551086 132.41619324 -113.93862915 131.44735718 C-112.80298249 128.36622596 -111.66319219 125.28664493 -110.5234375 122.20703125 C-109.72160607 120.03356447 -108.92009804 117.85997835 -108.11889648 115.6862793 C-106.44998191 111.15920502 -104.77967079 106.63264966 -103.10839844 102.10644531 C-99.49146095 92.30745289 -95.8922782 82.50194864 -92.29263306 72.69659424 C-91.1544731 69.59846049 -90.01440757 66.50103436 -88.8737793 63.40380859 C-85.62338809 54.57382642 -82.38522934 45.74076405 -79.22265625 36.87890625 C-78.48564514 34.82535405 -77.74793111 32.77205585 -77.00997925 30.71884155 C-76.36803152 28.92187039 -75.73754217 27.12081806 -75.10766602 25.31958008 C-71.8535434 16.26668067 -67.96035063 7.6985068 -60.5859375 1.26953125 C-59.8846875 0.60953125 -59.1834375 -0.05046875 -58.4609375 -0.73046875 C-41.13392539 -12.78404239 -17.10991151 -11.94066262 0 0 Z M-31.5859375 34.26953125 C-34.66352513 40.83974852 -37.14932347 47.5058488 -39.44921875 54.3828125 C-39.80429001 55.43244675 -40.15936127 56.48208099 -40.52519226 57.56352234 C-41.65363381 60.90168233 -42.77629792 64.24174816 -43.8984375 67.58203125 C-45.0072258 70.87152547 -46.11725875 74.16059603 -47.22799683 77.44943237 C-47.9552861 79.60291403 -48.68179534 81.75665929 -49.40750122 83.91067505 C-52.04706412 91.72907675 -54.75518727 99.52166035 -57.53913879 107.28987122 C-59.03824949 111.18262087 -59.03824949 111.18262087 -59.5859375 115.26953125 C-40.4459375 115.26953125 -21.3059375 115.26953125 -1.5859375 115.26953125 C-3.89711844 105.87390847 -3.89711844 105.87390847 -6.60717773 96.64990234 C-6.97443466 95.50186127 -7.34169159 94.35382019 -7.72007751 93.17098999 C-8.10764725 91.97374298 -8.49521698 90.77649597 -8.89453125 89.54296875 C-9.30688477 88.26135822 -9.71899406 86.97966909 -10.13087463 85.69790649 C-10.98813672 83.03313728 -11.84813468 80.36927213 -12.71020508 77.70605469 C-13.80560001 74.32135361 -14.8942953 70.93454225 -15.98097134 67.54703331 C-16.82861263 64.90709809 -17.67969593 62.26828212 -18.53178596 59.62977982 C-19.12731335 57.78383865 -19.72012285 55.93702135 -20.31285095 54.09017944 C-22.49269932 47.37108675 -24.85390736 40.78462662 -27.5859375 34.26953125 C-28.9059375 34.26953125 -30.2259375 34.26953125 -31.5859375 34.26953125 Z M-401.5859375 35.26953125 C-401.5859375 55.72953125 -401.5859375 76.18953125 -401.5859375 97.26953125 C-395.1715625 97.35203125 -388.7571875 97.43453125 -382.1484375 97.51953125 C-380.14209229 97.55594727 -378.13574707 97.59236328 -376.06860352 97.62988281 C-374.45069442 97.64158216 -372.83277341 97.65177102 -371.21484375 97.66015625 C-370.39721558 97.68062012 -369.5795874 97.70108398 -368.73718262 97.72216797 C-360.34975203 97.72716718 -353.3485356 94.70633602 -347.15625 89.046875 C-340.04424706 80.99721993 -339.11494607 72.57269938 -339.3125 62.2578125 C-339.85515306 54.34283 -343.19571046 48.82326505 -348.51953125 43.0625 C-355.82991659 36.71946244 -363.69491975 35.11025862 -373.0703125 35.171875 C-374.15530029 35.17338562 -374.15530029 35.17338562 -375.26220703 35.17492676 C-377.95346674 35.18014238 -380.64470378 35.19410363 -383.3359375 35.20703125 C-389.3584375 35.22765625 -395.3809375 35.24828125 -401.5859375 35.26953125 Z M-241.5859375 35.26953125 C-241.5859375 54.40953125 -241.5859375 73.54953125 -241.5859375 93.26953125 C-234.64016196 94.2617849 -227.973968 94.45562976 -220.99023438 94.45483398 C-218.85526309 94.45701154 -216.72081712 94.47518471 -214.5859375 94.49414062 C-201.28306571 94.55111907 -191.10087533 93.72243088 -180.80078125 84.70703125 C-175.39524843 79.18196576 -173.57958294 71.79498317 -173.2109375 64.20703125 C-174.19640797 53.85959127 -177.60375937 47.14551777 -185.5859375 40.26953125 C-190.98964667 37.00317435 -196.66357384 35.13740665 -202.98730469 35.15600586 C-203.85983887 35.15612671 -204.73237305 35.15624756 -205.63134766 35.15637207 C-206.53933105 35.16148804 -207.44731445 35.166604 -208.3828125 35.171875 C-209.22408691 35.17288208 -210.06536133 35.17388916 -210.93212891 35.17492676 C-214.06674569 35.1801483 -217.201343 35.19410957 -220.3359375 35.20703125 C-230.8546875 35.23796875 -230.8546875 35.23796875 -241.5859375 35.26953125 Z " fill="#212121" transform="translate(573.5859375,429.73046875)"/>
<path d="M0 0 C7.69499976 6.36235094 11.74120124 13.17297925 15.01025391 22.50463867 C15.63444214 24.20414673 15.63444214 24.20414673 16.27124023 25.93798828 C17.15304987 28.34533022 18.02584942 30.75598949 18.89013672 33.16967773 C20.15696139 36.70335224 21.44954251 40.22631173 22.75244141 43.74682617 C25.32819767 50.71586578 27.87484865 57.6952509 30.41772461 64.67633057 C32.98593292 71.72483655 35.56006007 78.77118244 38.13525391 85.81713867 C38.59519241 87.07587799 38.59519241 87.07587799 39.06442261 88.36004639 C45.24223053 105.26135888 51.49113368 122.13613141 57.74694824 139.00869751 C62.81113171 152.66740083 67.87199084 166.32714921 72.88525391 180.00463867 C73.32450195 181.20241943 73.76375 182.4002002 74.21630859 183.63427734 C77.05993115 191.4036704 77.05993115 191.4036704 78.19775391 194.81713867 C77.19775391 195.81713867 77.19775391 195.81713867 75.1033783 195.93739319 C74.18182449 195.93517258 73.26027069 195.93295197 72.31079102 195.93066406 C71.26978745 195.93058853 70.22878387 195.930513 69.15623474 195.93043518 C68.0239595 195.9252739 66.89168427 195.92011261 65.72509766 195.91479492 C63.99592857 195.9126725 63.99592857 195.9126725 62.23182678 195.9105072 C58.53294327 195.90488872 54.83411927 195.89233309 51.13525391 195.87963867 C48.63460374 195.87462605 46.13395262 195.87006273 43.63330078 195.8659668 C37.48807686 195.85576217 31.34298236 195.83619036 25.19775391 195.81713867 C20.90775391 183.27713867 16.61775391 170.73713867 12.19775391 157.81713867 C-15.19224609 157.81713867 -42.58224609 157.81713867 -70.80224609 157.81713867 C-74.76224609 169.69713867 -78.72224609 181.57713867 -82.80224609 193.81713867 C-85.43285707 196.44774965 -87.30952583 196.05330915 -90.88952637 196.065979 C-91.74260376 196.05878845 -92.59568115 196.0515979 -93.47460938 196.04418945 C-94.37222992 196.04448151 -95.26985046 196.04477356 -96.19467163 196.04507446 C-99.17073125 196.0436777 -102.14654255 196.02810023 -105.12255859 196.01245117 C-107.18236148 196.00872227 -109.24216614 196.00587472 -111.30197144 196.00387573 C-116.7304573 195.99622958 -122.15883659 195.97657267 -127.58728027 195.95446777 C-134.09672341 195.93043891 -140.60620212 195.92123304 -147.11567688 195.90956116 C-157.01127413 195.89014884 -166.90663743 195.85183305 -176.80224609 195.81713867 C-177.13224609 169.08713867 -177.46224609 142.35713867 -177.80224609 114.81713867 C-202.55224609 114.81713867 -227.30224609 114.81713867 -252.80224609 114.81713867 C-252.79064453 120.58053711 -252.77904297 126.34393555 -252.76708984 132.28198242 C-252.76198308 135.92325958 -252.7571693 139.56453236 -252.75341797 143.20581055 C-252.74742956 148.99122021 -252.74032933 154.77661412 -252.72680664 160.56201172 C-252.71597763 165.22390987 -252.70996923 169.88579113 -252.70736885 174.54770088 C-252.70551463 176.33038156 -252.70189407 178.11306126 -252.69651604 179.89573479 C-252.68930541 182.38379828 -252.68825516 184.8717911 -252.6887207 187.35986328 C-252.68512543 188.10432709 -252.68153015 188.84879089 -252.67782593 189.61581421 C-252.68819393 194.70308651 -252.68819393 194.70308651 -253.80224609 195.81713867 C-255.30643349 195.91025757 -256.81495965 195.93459895 -258.32202148 195.93066406 C-259.76340233 195.93055077 -259.76340233 195.93055077 -261.23390198 195.93043518 C-262.2786821 195.9252739 -263.32346222 195.92011261 -264.39990234 195.91479492 C-265.99589516 195.9126725 -265.99589516 195.9126725 -267.62413025 195.9105072 C-271.03769693 195.90488931 -274.45119909 195.89233378 -277.86474609 195.87963867 C-280.17268786 195.87462598 -282.48063065 195.87006267 -284.78857422 195.8659668 C-290.45982036 195.85491407 -296.13102862 195.83815854 -301.80224609 195.81713867 C-303.02257183 192.15616145 -302.9404592 188.79544697 -302.92922974 184.98422241 C-302.93078973 184.17790489 -302.93234972 183.37158736 -302.93395698 182.54083598 C-302.93795625 179.83002133 -302.93478149 177.11926236 -302.93164062 174.40844727 C-302.93299512 172.46876492 -302.93477532 170.52908284 -302.93695068 168.58940125 C-302.94151868 163.31488018 -302.93973821 158.04037863 -302.9365716 152.76585722 C-302.93404546 147.2556576 -302.93638618 141.74545969 -302.93795776 136.23526001 C-302.93977841 126.98292744 -302.93737558 117.73060284 -302.93261719 108.47827148 C-302.92717156 97.76560814 -302.92893983 87.05296381 -302.93444359 76.34030092 C-302.93897388 67.15643506 -302.93962578 57.97257494 -302.93700492 48.78870833 C-302.9354421 43.29739229 -302.9352486 37.80608521 -302.93854141 32.31476974 C-302.94141901 27.15532091 -302.9394465 21.99589673 -302.93364716 16.83645058 C-302.93231909 14.93727599 -302.93271445 13.03809934 -302.93490982 11.13892555 C-302.93761945 8.55795107 -302.93424256 5.97705693 -302.92922974 3.39608765 C-302.93146046 2.63453003 -302.93369118 1.87297242 -302.9359895 1.0883373 C-302.91639616 -4.06871126 -302.91639616 -4.06871126 -301.80224609 -5.18286133 C-300.2980587 -5.27598022 -298.78953253 -5.30032161 -297.2824707 -5.29638672 C-295.84108986 -5.29627342 -295.84108986 -5.29627342 -294.37059021 -5.29615784 C-292.80342003 -5.28841591 -292.80342003 -5.28841591 -291.20458984 -5.28051758 C-290.14059464 -5.27910263 -289.07659943 -5.27768768 -287.98036194 -5.27622986 C-284.56679526 -5.27061196 -281.1532931 -5.25805644 -277.73974609 -5.24536133 C-275.43180433 -5.24034863 -273.12386154 -5.23578533 -270.81591797 -5.23168945 C-265.14467183 -5.22063672 -259.47346357 -5.2038812 -253.80224609 -5.18286133 C-252.58880759 -1.41811628 -252.72033516 2.13229086 -252.78051758 6.06420898 C-252.79030923 6.79819286 -252.80010088 7.53217674 -252.81018925 8.28840256 C-252.84298842 10.6574573 -252.88301925 13.02632626 -252.92333984 15.39526367 C-252.94469184 16.86058882 -252.96556861 18.32592097 -252.98596191 19.79125977 C-253.06479778 25.21663947 -253.15282778 30.64188243 -253.23974609 36.06713867 C-253.42537109 48.19463867 -253.61099609 60.32213867 -253.80224609 72.81713867 C-228.39224609 72.81713867 -202.98224609 72.81713867 -176.80224609 72.81713867 C-176.80224609 47.07713867 -176.80224609 21.33713867 -176.80224609 -5.18286133 C-160.63224609 -5.18286133 -144.46224609 -5.18286133 -127.80224609 -5.18286133 C-127.47224609 53.22713867 -127.14224609 111.63713867 -126.80224609 171.81713867 C-120.86224609 155.31713867 -114.92224609 138.81713867 -108.80224609 121.81713867 C-105.72971252 113.39478195 -102.6544814 104.97420418 -99.55126953 96.56323242 C-97.73554415 91.63867862 -95.9251637 86.71216315 -94.11448669 81.78575134 C-92.4892786 77.36450972 -90.86320331 72.94358762 -89.23672581 68.52281284 C-88.07413217 65.36286187 -86.91190965 62.20277601 -85.75033569 59.04244995 C-82.7800914 50.96270528 -79.79782737 42.8875236 -76.80224609 34.81713867 C-76.41607117 33.77405548 -76.02989624 32.73097229 -75.63201904 31.65628052 C-74.55320363 28.74913756 -73.46635684 25.84514429 -72.37646484 22.94213867 C-72.06389236 22.09767685 -71.75131989 21.25321503 -71.42927551 20.38316345 C-66.75916406 8.03078731 -60.01200911 0.62589583 -48.11474609 -4.99536133 C-33.317164 -11.61251454 -13.00852036 -9.77634199 0 0 Z M-29.80224609 34.81713867 C-32.23748267 38.16530845 -33.5904859 41.67484896 -34.89941406 45.57861328 C-35.28346405 46.71427231 -35.66751404 47.84993134 -36.0632019 49.02000427 C-36.46950836 50.24083206 -36.87581482 51.46165985 -37.29443359 52.71948242 C-37.72602232 54.00177737 -38.15817157 55.28388378 -38.59085083 56.56581116 C-39.72835965 59.94036655 -40.85903455 63.31717073 -41.98803711 66.69458008 C-43.56696348 71.41402064 -45.15496873 76.13041479 -46.74221802 80.84706116 C-47.58510888 83.35180696 -48.42507586 85.85746871 -49.26339722 88.36375427 C-49.65375153 89.52778275 -50.04410583 90.69181122 -50.44628906 91.89111328 C-50.82557556 93.02443085 -51.20486206 94.15774841 -51.59564209 95.32540894 C-52.4474474 97.79040484 -53.323701 100.22936859 -54.2456665 102.66751099 C-54.48210436 103.3003856 -54.71854221 103.93326021 -54.96214485 104.58531284 C-55.62395013 106.34668278 -56.29830766 108.10332159 -56.97341919 109.8596344 C-58.11183797 112.98220671 -58.11183797 112.98220671 -56.80224609 116.81713867 C-28.58724609 116.32213867 -28.58724609 116.32213867 0.19775391 115.81713867 C-3.61100727 103.66885511 -3.61100727 103.66885511 -7.43115234 91.52416992 C-9.17963336 85.97507863 -10.92578386 80.42528189 -12.66503906 74.87329102 C-14.24754759 69.8222658 -15.8363901 64.77326911 -17.42913818 59.72546387 C-18.05312064 57.74413945 -18.67490516 55.7621215 -19.29449463 53.77941895 C-20.16761934 50.98675421 -21.04846871 48.19663809 -21.93115234 45.40698242 C-22.19218246 44.56584396 -22.45321259 43.72470551 -22.72215271 42.858078 C-24.06289007 38.44159802 -24.06289007 38.44159802 -26.80224609 34.81713867 C-27.79224609 34.81713867 -28.78224609 34.81713867 -29.80224609 34.81713867 Z " fill="#212121" transform="translate(556.80224609375,642.182861328125)"/>
<path d="M0 0 C17.49 0 34.98 0 53 0 C71.45358497 61.08569438 71.45358497 61.08569438 79.375 87.6875 C79.7893631 89.07795029 79.7893631 89.07795029 80.21209717 90.49649048 C83.08005598 100.12298551 85.93223246 109.7538715 88.75198364 119.39460754 C89.9598554 123.52429404 91.17087446 127.65305579 92.38165283 131.78189087 C93.23024477 134.68247439 94.0730278 137.58470267 94.91552734 140.48706055 C95.42779949 142.23624165 95.940318 143.98535063 96.453125 145.734375 C96.68264862 146.53190689 96.91217224 147.32943878 97.14865112 148.15113831 C98.13293001 151.48941251 99.05457527 154.08186291 101 157 C101.99 157 102.98 157 104 157 C106.79139283 149.54845784 109.29056256 142.05266729 111.58203125 134.43359375 C112.07856453 132.79570389 112.07856453 132.79570389 112.58512878 131.12472534 C113.66390769 127.56321336 114.73825527 124.00038195 115.8125 120.4375 C116.56814187 117.93963146 117.32400438 115.44182965 118.08007812 112.9440918 C123.39847033 95.36156402 128.67462723 77.76636865 133.94094849 60.16818237 C138.58272799 44.65942381 143.30135384 29.17846624 148.15429688 13.734375 C149.27124844 10.12298426 150.33084408 6.49549523 151.37792969 2.86328125 C152 1 152 1 153 0 C154.61243534 -0.10256425 156.22936148 -0.13520086 157.845047 -0.14044189 C158.89453018 -0.14615204 159.94401337 -0.15186218 161.02529907 -0.15774536 C162.76811661 -0.15942215 162.76811661 -0.15942215 164.54614258 -0.16113281 C165.76261978 -0.16609772 166.97909698 -0.17106262 168.23243713 -0.17617798 C171.58486962 -0.18832275 174.93723935 -0.19575739 178.28968644 -0.20018864 C180.39159491 -0.2031209 182.49349794 -0.2072266 184.59540367 -0.21169281 C191.19168632 -0.22539435 197.78795648 -0.23504088 204.38425237 -0.2388947 C211.9575796 -0.2433445 219.53072355 -0.26073588 227.10399514 -0.2898953 C232.9768944 -0.31170677 238.84974295 -0.32160966 244.72268218 -0.32293582 C248.21882174 -0.32397258 251.71478972 -0.32963072 255.210886 -0.34775543 C290.55608879 -0.52019195 322.29700912 3.83571346 348.578125 29.51953125 C369.59351984 51.53412431 375.56875233 77.78332713 375.28125 107.609375 C374.63783108 132.94721214 363.58057327 156.04223709 346 174 C342.84634304 176.99372507 339.59182451 179.55242816 336 182 C335.19852539 182.54648193 335.19852539 182.54648193 334.38085938 183.10400391 C294.23704926 209.99044463 242.45808925 201 197 201 C196.67 143.25 196.34 85.5 196 26 C185.605 56.69 185.605 56.69 175 88 C167.9375 108.125 167.9375 108.125 164.9296875 116.6171875 C161.19401885 127.23051144 157.65079102 137.90778866 154.13061523 148.59423828 C151.75296847 155.80542163 149.33471447 163.00044702 146.828125 170.16796875 C146.58699478 170.86339783 146.34586456 171.5588269 146.09742737 172.27532959 C141.69659906 184.76246703 135.8630485 193.53821633 124 199.875 C111.38184635 205.60526244 97.00123353 205.86288916 83.97265625 201.26171875 C71.56620147 195.99590417 65.467662 189.09386465 60 177 C58.49932115 173.13575409 57.18180563 169.22119318 55.8828125 165.28515625 C55.5091304 164.17376282 55.1354483 163.06236938 54.7504425 161.91729736 C53.95109168 159.53776246 53.15495753 157.15714495 52.36178589 154.77554321 C50.4630106 149.07509435 48.54470695 143.38123187 46.62724876 137.68704796 C45.98001809 135.76428619 45.33363618 133.84124053 44.68733215 131.91816711 C41.02012167 121.02010755 37.25052022 110.16023456 33.4375 99.3125 C26.9423068 80.81092604 20.62037289 62.25237451 14.33959961 43.67700195 C13.62359362 41.56068986 12.90753012 39.44439721 12.19140625 37.328125 C11.846436 36.30760544 11.50146576 35.28708588 11.14604187 34.23564148 C9.35220229 28.94144224 7.53608032 23.65604349 5.68701172 18.38085938 C5.31422592 17.31695984 4.94144012 16.2530603 4.55735779 15.15692139 C3.84403256 13.12630716 3.12789936 11.09667653 2.40858459 9.06817627 C2.0919133 8.16750427 1.775242 7.26683228 1.44897461 6.33886719 C1.1683165 5.54647644 0.88765839 4.75408569 0.59849548 3.93768311 C0 2 0 2 0 0 Z M246 41 C245.97667047 56.36801449 245.95902056 71.73602816 245.94818783 87.10405636 C245.94302499 94.23921741 245.93598252 101.37436748 245.92456055 108.50952148 C245.91355325 115.38889737 245.90772383 122.26826181 245.90512276 129.14764595 C245.90326794 131.77881615 245.89964627 134.40998569 245.89426994 137.04115105 C245.88706365 140.7122625 245.88600888 144.38332603 245.88647461 148.05444336 C245.88287933 149.15423523 245.87928406 150.2540271 245.87557983 151.387146 C245.8769545 152.38139084 245.87832916 153.37563568 245.87974548 154.40000916 C245.87882369 155.26925994 245.8779019 156.13851072 245.87695217 157.03410244 C245.78258743 159.00310528 245.78258743 159.00310528 247 160 C267.01637018 161.43580093 289.77599286 161.27634777 305.91015625 147.8359375 C306.59980469 147.23007812 307.28945313 146.62421875 308 146 C308.92619141 145.21496094 308.92619141 145.21496094 309.87109375 144.4140625 C320.92752014 134.31799386 325.55655525 120.2067891 326.37890625 105.61328125 C326.94438664 88.18592965 324.05879622 71.01527285 311.8203125 57.6875 C296.47018756 43.45734126 280.25318743 40.75955441 259.953125 40.921875 C258.59586847 40.92815803 257.23860912 40.93385913 255.88134766 40.93896484 C252.58749187 40.9536042 249.29378332 40.9741061 246 41 Z " fill="#212121" transform="translate(610,637)"/>
<path d="M0 0 C8.87312595 7.43085106 12.25261008 19.27225843 16.046875 29.83203125 C16.41513397 30.84515884 16.78339294 31.85828644 17.16281128 32.90211487 C17.95184942 35.07417098 18.73893987 37.24693548 19.52423096 39.42034912 C21.20397465 44.06881375 22.89359282 48.71366912 24.58279419 53.35870361 C25.45195854 55.74879845 26.32066938 58.13905826 27.18893433 60.52947998 C31.29394501 71.82630395 35.45140769 83.1033655 39.625 94.375 C40.31504746 96.23973696 41.00507026 98.10448305 41.69506836 99.96923828 C43.07966492 103.71060232 44.46474012 107.45178877 45.85009766 111.19287109 C49.29929139 120.50813787 52.74319142 129.82536224 56.18695068 139.14263916 C57.28073081 142.10155729 58.37495114 145.06031232 59.46923828 148.01904297 C62.66839729 156.67132255 65.86667644 165.32359051 69 174 C69.03758423 173.09906616 69.03758423 173.09906616 69.07592773 172.17993164 C69.1915528 169.47388563 69.31442936 166.76821717 69.4375 164.0625 C69.47681641 163.11697266 69.51613281 162.17144531 69.55664062 161.19726562 C69.59853516 160.29814453 69.64042969 159.39902344 69.68359375 158.47265625 C69.73858032 157.22367554 69.73858032 157.22367554 69.79467773 155.94946289 C70 154 70 154 71 153 C73.7677352 152.89074237 76.51143123 152.84576811 79.2800293 152.84228516 C80.14835892 152.83720444 81.01668854 152.83212372 81.91133118 152.82688904 C83.80420091 152.81615957 85.69708354 152.80754958 87.58997154 152.80076981 C90.58680797 152.78901311 93.58349816 152.76956711 96.58027649 152.74765015 C105.10351687 152.68593685 113.62674453 152.63203008 122.15014648 152.59863281 C127.35800004 152.57767401 132.56559102 152.54235518 137.77329445 152.49787521 C139.75834877 152.48371829 141.7434496 152.47499347 143.72855186 152.47182083 C146.51031259 152.46690609 149.29137871 152.44373163 152.07299805 152.41650391 C152.89142181 152.41951004 153.70984558 152.42251617 154.55307007 152.4256134 C160.08101805 152.34535777 164.36805722 151.39557899 168.609375 147.53515625 C173.48097392 141.2454549 174.96641207 136.94605483 174 129 C172.32768291 123.70282262 169.78165661 119.96007314 165 117 C159.82461359 114.83305797 155.16346061 114.69048573 149.6484375 114.65625 C148.75315338 114.6416272 147.85786926 114.62700439 146.93545532 114.61193848 C144.08201548 114.56564551 141.22864044 114.53136929 138.375 114.5 C115.97774574 114.25101393 94.46154172 113.04359283 77.25 96.75 C63.9196478 82.69082783 61.5060607 66.81180859 61.72265625 48.24609375 C61.93276456 41.20380675 63.01103625 35.44205231 66 29 C66.65355469 27.56527344 66.65355469 27.56527344 67.3203125 26.1015625 C74.48708172 11.80718672 86.13296882 2.51988048 101 -3 C112.95601425 -6.63750741 124.78005186 -6.39040564 137.1484375 -6.29296875 C139.25834855 -6.2873616 141.36826355 -6.2830968 143.47817993 -6.28010559 C148.98546457 -6.26874484 154.49250539 -6.23935477 159.99969482 -6.20599365 C165.63778385 -6.17510197 171.27591293 -6.16155974 176.9140625 -6.14648438 C187.94281446 -6.11447535 198.97138682 -6.06338724 210 -6 C211.63483632 -2.73032737 211.14170489 0.88033115 211.1328125 4.47265625 C211.13424759 5.73002846 211.13424759 5.73002846 211.13571167 7.01280212 C211.1363926 8.78563512 211.13454434 10.55847061 211.13037109 12.33129883 C211.12501493 15.05490677 211.13032243 17.77835029 211.13671875 20.50195312 C211.13605808 22.22135453 211.13477716 23.94075584 211.1328125 25.66015625 C211.13483673 26.47992447 211.13686096 27.29969269 211.13894653 28.14430237 C211.11495507 33.88504493 211.11495507 33.88504493 210 35 C207.32379535 35.10920131 204.67245091 35.15422898 201.99536133 35.15771484 C200.73675797 35.16533592 200.73675797 35.16533592 199.45272827 35.17311096 C197.62370167 35.18384007 195.79466173 35.19245021 193.96561623 35.19923019 C191.06959228 35.210988 188.17371958 35.23043438 185.27775574 35.25234985 C177.04126024 35.31405867 168.80477787 35.36796485 160.56811523 35.40136719 C155.53532106 35.42232965 150.50279843 35.45765155 145.47015953 35.50212479 C143.55209237 35.51627901 141.63397712 35.52500592 139.71586037 35.52817917 C137.02748934 35.53309564 134.33983616 35.55627441 131.65161133 35.58349609 C130.86123978 35.58048996 130.07086823 35.57748383 129.25654602 35.5743866 C123.78445097 35.65654559 119.50421052 36.6623403 115.35546875 40.53515625 C110.57154062 46.79106226 110.30929195 51.18198575 111 59 C111.98472502 62.54375563 113.57022033 65.03173491 116.69668579 67.14901733 C121.75036114 69.77901814 125.80101598 70.57799782 131.4609375 70.5390625 C132.6450975 70.55675186 132.6450975 70.55675186 133.85317993 70.57479858 C136.36065495 70.60977426 138.86730246 70.61918055 141.375 70.625 C151.20847089 70.69106165 160.96841402 70.83007926 170.75390625 71.8828125 C171.83283646 71.99527817 171.83283646 71.99527817 172.93356323 72.11001587 C183.67147709 73.37946163 193.50960261 77.25856087 202 84 C203.15628906 84.91265625 203.15628906 84.91265625 204.3359375 85.84375 C215.13744292 94.88687082 221.28232476 106.93985424 223 121 C224.27304547 140.92405093 220.9417334 160.09788696 207.5625 175.5625 C206.07250825 177.07272933 204.55282356 178.55445268 203 180 C202.32582031 180.64324219 201.65164063 181.28648437 200.95703125 181.94921875 C182.45639925 197.95070347 156.16279332 195.30851858 133.37541628 195.26865101 C129.52870694 195.26353187 125.68200642 195.26829735 121.83529663 195.27142334 C115.39538833 195.27503982 108.95552625 195.27031884 102.515625 195.26074219 C95.06946172 195.24979712 87.62340746 195.25343603 80.17724669 195.264395 C73.76249908 195.27345717 67.34778433 195.27476037 60.93303239 195.26951766 C57.11021975 195.26640035 53.28745854 195.26598337 49.4646492 195.27259064 C45.8841543 195.27835012 42.3038014 195.27439322 38.72332191 195.26280212 C36.77962567 195.25888325 34.83591745 195.26484851 32.89222717 195.27105713 C31.1684359 195.26259766 31.1684359 195.26259766 29.40982056 195.25396729 C27.90620688 195.25283621 27.90620688 195.25283621 26.37221718 195.25168228 C24 195 24 195 22 193 C21.06123853 190.41312472 20.20634912 187.84637947 19.3984375 185.21875 C19.1571109 184.44946167 18.9157843 183.68017334 18.66714478 182.88757324 C18.1582868 181.26109182 17.65245275 179.63366171 17.14941406 178.00537109 C16.37742812 175.5078554 15.59577855 173.01352556 14.8125 170.51953125 C14.31974059 168.9402825 13.82753426 167.36086105 13.3359375 165.78125 C13.10160004 165.0322644 12.86726257 164.28327881 12.62582397 163.51159668 C11 158.23255152 11 158.23255152 11 156 C-16.72 156.33 -44.44 156.66 -73 157 C-76.96 169.21 -80.92 181.42 -85 194 C-86 195 -86 195 -88.01844788 195.12025452 C-88.90447189 195.11803391 -89.79049591 195.11581329 -90.70336914 195.11352539 C-91.70433121 195.11344986 -92.70529327 195.11337433 -93.73658752 195.11329651 C-94.8251152 195.10813522 -95.91364288 195.10297394 -97.03515625 195.09765625 C-98.14354355 195.0962413 -99.25193085 195.09482635 -100.39390564 195.09336853 C-103.95013069 195.08775033 -107.50629383 195.07519475 -111.0625 195.0625 C-113.46679597 195.05748734 -115.87109292 195.05292403 -118.27539062 195.04882812 C-124.18361504 195.03777499 -130.0918031 195.02101917 -136 195 C-137 193 -137 193 -135.83862305 189.23608398 C-135.23754818 187.56988529 -134.62783585 185.90678903 -134.01171875 184.24609375 C-133.68223236 183.33977707 -133.35274597 182.43346039 -133.01327515 181.49967957 C-131.91197698 178.47623522 -130.79977726 175.45692087 -129.6875 172.4375 C-128.90944722 170.30866028 -128.13203224 168.17958736 -127.35522461 166.05029297 C-125.31618819 160.46740486 -123.2677273 154.88802476 -121.21643066 149.30963135 C-119.67428064 145.11379166 -118.13636243 140.91640814 -116.59858704 136.71896362 C-112.88413946 126.58095862 -109.1584166 116.44713373 -105.42756653 106.31515503 C-102.70764511 98.92706322 -99.9947892 91.53640209 -97.28515625 84.14453125 C-92.86683589 72.0926432 -88.44018009 60.0438528 -84 48 C-83.52506104 46.71150146 -83.52506104 46.71150146 -83.04052734 45.39697266 C-81.32905666 40.75644471 -79.61217758 36.11799132 -77.88592529 31.48294067 C-77.3886893 30.14632232 -76.89289888 28.80916506 -76.39874268 27.47140503 C-70.27086442 10.89458489 -64.95558557 1.21732259 -48.7421875 -6.43359375 C-32.97295731 -13.32289306 -13.8007405 -9.02218953 0 0 Z M-32 34 C-34.75585043 37.57893334 -36.0562771 41.63290191 -37.49609375 45.87890625 C-37.72588928 46.55162064 -37.95568481 47.22433502 -38.19244385 47.91743469 C-38.94662122 50.13052573 -39.69225965 52.34638507 -40.4375 54.5625 C-40.96227948 56.11031328 -41.487432 57.65800013 -42.01293945 59.20556641 C-43.398477 63.29241168 -44.77558963 67.38204531 -46.15014648 71.47259521 C-47.00396054 74.01177838 -47.86007761 76.55017462 -48.71679688 79.08837891 C-50.11180636 83.22283887 -51.50261539 87.35868666 -52.88967896 91.49581909 C-53.41926921 93.07510938 -53.94959734 94.65415243 -54.48068237 96.23294067 C-55.22337487 98.44330779 -55.96191893 100.65501663 -56.69921875 102.8671875 C-56.91846008 103.51778641 -57.13770142 104.16838531 -57.36358643 104.83869934 C-58.49217669 108.24133199 -59.29240056 111.46200279 -60 115 C-40.86 115 -21.72 115 -2 115 C-4.54344487 105.67400628 -4.54344487 105.67400628 -7.3125 96.4296875 C-7.52278839 95.75712418 -7.73307678 95.08456085 -7.94973755 94.39161682 C-8.63050571 92.21856764 -9.31488504 90.04668235 -10 87.875 C-10.35333405 86.75195969 -10.35333405 86.75195969 -10.71380615 85.60623169 C-14.41588 73.84943585 -18.22693568 62.13071649 -22.125 50.4375 C-22.36460449 49.71778015 -22.60420898 48.9980603 -22.85107422 48.25653076 C-23.52618314 46.23149518 -24.20382976 44.20733337 -24.8828125 42.18359375 C-25.26840332 41.03431396 -25.65399414 39.88503418 -26.05126953 38.70092773 C-26.91013555 36.07513062 -26.91013555 36.07513062 -28 34 C-29.32 34 -30.64 34 -32 34 Z " fill="#212121" transform="translate(940,430)"/>
<path d="M0 0 C9.3829448 7.26625355 13.70473402 16.58562496 17.578125 27.48046875 C18.02865234 28.72787086 18.02865234 28.72787086 18.48828125 30.00047302 C19.13770958 31.80007213 19.78495815 33.60045908 20.43023682 35.40155029 C21.82912222 39.30549284 23.2390398 43.20542248 24.64840698 47.10559082 C25.39429622 49.16977923 26.13966946 51.23415416 26.884552 53.29870605 C31.02661043 64.7729149 35.23338297 76.22316866 39.4453125 87.671875 C40.21095083 89.75398273 40.97657585 91.83609535 41.7421875 93.91821289 C43.23387727 97.97430439 44.72609729 102.03020027 46.21875 106.0859375 C47.85457439 110.5307231 49.48915797 114.97596315 51.12312317 119.4214325 C58.45205694 139.35892846 65.83401593 159.27627402 73.25634766 179.17919922 C73.58729935 180.06713669 73.91825104 180.95507416 74.25923157 181.86991882 C74.88067178 183.53709167 75.50254561 185.20410296 76.12492371 186.8709259 C77.22966687 189.83505063 78.3198968 192.7956279 79.3203125 195.796875 C78.3203125 196.796875 78.3203125 196.796875 76.22593689 196.91712952 C75.30438309 196.91490891 74.38282928 196.91268829 73.43334961 196.91040039 C72.39234604 196.91032486 71.35134247 196.91024933 70.27879333 196.91017151 C69.1465181 196.90501022 68.01424286 196.89984894 66.84765625 196.89453125 C65.11848717 196.89240883 65.11848717 196.89240883 63.35438538 196.89024353 C59.65550186 196.88462505 55.95667786 196.87206942 52.2578125 196.859375 C49.75716233 196.85436238 47.25651121 196.84979906 44.75585938 196.84570312 C38.61065662 196.83464962 32.46548881 196.81789352 26.3203125 196.796875 C21.6196859 184.26187074 17.55377706 171.49726869 13.3203125 158.796875 C-14.0696875 158.796875 -41.4596875 158.796875 -69.6796875 158.796875 C-73.6396875 170.676875 -77.5996875 182.556875 -81.6796875 194.796875 C-83.6796875 196.796875 -83.6796875 196.796875 -85.81838989 197.03738403 C-87.144095 197.0307222 -87.144095 197.0307222 -88.49658203 197.02392578 C-89.49746857 197.02377472 -90.4983551 197.02362366 -91.52957153 197.02346802 C-93.15462112 197.00798416 -93.15462112 197.00798416 -94.8125 196.9921875 C-95.91947235 196.9893576 -97.0264447 196.98652771 -98.16696167 196.98361206 C-101.71297887 196.97239019 -105.25874625 196.94728191 -108.8046875 196.921875 C-111.20442344 196.9118478 -113.60416333 196.9027215 -116.00390625 196.89453125 C-121.89591901 196.87244432 -127.78778541 196.83894707 -133.6796875 196.796875 C-133.01888442 191.30206897 -131.2416247 186.46719055 -129.3125 181.3203125 C-128.96647232 180.3837381 -128.62044464 179.4471637 -128.26393127 178.48220825 C-127.11560875 175.37697873 -125.96003071 172.27449845 -124.8046875 169.171875 C-123.98871159 166.96833126 -123.17337512 164.76455064 -122.35864258 162.56054688 C-121.08556121 159.1166515 -119.8121493 155.67288342 -118.53688049 152.22979736 C-114.49899488 141.32569921 -110.50965488 130.40416657 -106.52767944 119.47955322 C-99.66354767 100.65449991 -92.77572003 81.83803316 -85.86367798 63.03051758 C-84.96503094 60.58410843 -84.06735112 58.13734373 -83.17074585 55.69018555 C-78.97683503 44.24604604 -74.75731856 32.8139302 -70.28125 21.4765625 C-69.80864494 20.26570984 -69.80864494 20.26570984 -69.32649231 19.03039551 C-64.27790645 6.40863328 -56.12499233 0.00692631 -43.91796875 -5.44140625 C-29.975557 -10.18620606 -12.24472134 -7.95316306 0 0 Z M-28.6796875 35.796875 C-31.14915067 38.46246123 -32.33251416 41.14522013 -33.45385742 44.56762695 C-33.76816208 45.51414627 -34.08246674 46.46066559 -34.40629578 47.43586731 C-34.73756973 48.45863266 -35.06884369 49.48139801 -35.41015625 50.53515625 C-35.76427078 51.60694626 -36.11838531 52.67873627 -36.48323059 53.78300476 C-37.61832036 57.22283727 -38.74316999 60.66591032 -39.8671875 64.109375 C-41.33686815 68.58561713 -42.81095104 73.06040264 -44.28515625 77.53515625 C-44.64632538 78.63570343 -45.00749451 79.73625061 -45.37960815 80.87014771 C-48.23011466 89.52626131 -51.2064371 98.13474439 -54.28349304 106.71296692 C-54.75671745 108.04843819 -54.75671745 108.04843819 -55.23950195 109.41088867 C-55.51856888 110.18889328 -55.7976358 110.96689789 -56.0851593 111.76847839 C-56.82032232 113.92440098 -56.82032232 113.92440098 -56.6796875 116.796875 C-50.45416386 117.9054248 -44.37096292 117.92533796 -38.05859375 117.89453125 C-36.95869614 117.8931163 -35.85879852 117.89170135 -34.72557068 117.89024353 C-31.23108133 117.88467003 -27.73665731 117.87212239 -24.2421875 117.859375 C-21.8652353 117.85435658 -19.4882821 117.84979427 -17.11132812 117.84570312 C-11.30075916 117.83470928 -5.490228 117.81799762 0.3203125 117.796875 C1.79296742 114.85156516 0.55686282 112.89145585 -0.41992188 109.90835571 C-0.69642578 109.08910614 -0.97292969 108.26985657 -1.2578125 107.42578125 C-1.54043945 106.56802094 -1.82306641 105.71026062 -2.11425781 104.82650757 C-3.0461389 102.0019013 -3.98793036 99.18070218 -4.9296875 96.359375 C-6.22493992 92.44649268 -7.51507029 88.5319302 -8.8046875 84.6171875 C-9.13116272 83.62824997 -9.45763794 82.63931244 -9.79400635 81.6204071 C-11.91683359 75.17290075 -13.98158068 68.70990695 -15.9921875 62.2265625 C-16.24498474 61.41245407 -16.49778198 60.59834564 -16.75823975 59.75956726 C-17.71926983 56.6592587 -18.67822564 53.55839668 -19.62561035 50.45388794 C-20.26878229 48.346568 -20.91901755 46.24153934 -21.5703125 44.13671875 C-21.93157227 42.95456787 -22.29283203 41.77241699 -22.66503906 40.55444336 C-23.49618749 37.70075205 -23.49618749 37.70075205 -25.6796875 35.796875 C-26.6696875 35.796875 -27.6596875 35.796875 -28.6796875 35.796875 Z " fill="#212121" transform="translate(1102.6796875,641.203125)"/>
<path d="M0 0 C15.84 0 31.68 0 48 0 C48.05607422 8.05535156 48.05607422 8.05535156 48.11328125 16.2734375 C48.1435851 19.69143731 48.17474871 23.10938657 48.20898438 26.52734375 C48.26315041 31.94316956 48.31426611 37.35889538 48.34643555 42.77490234 C48.3725943 47.14525 48.41308395 51.51525864 48.46318626 55.88539505 C48.47977046 57.54615664 48.49133701 59.20697676 48.49761391 60.8678093 C48.55509955 74.68983308 50.01430613 85.90310427 59 97 C67.1790689 104.46586623 77.00961437 106.59453065 87.83203125 106.27734375 C96.90041413 105.48344093 104.26840202 102.18516429 111 96 C119.93074253 84.79426832 120.44981426 72.36714589 120.4765625 58.65234375 C120.490894 56.98750053 120.50665483 55.32266907 120.52377319 53.65785217 C120.5653641 49.30675571 120.59054213 44.95573225 120.61126709 40.60449219 C120.64728706 33.609253 120.70794237 26.61419289 120.76975632 19.61914253 C120.78887209 17.17667314 120.80057657 14.73425223 120.81118774 12.29173279 C120.82139136 10.80768727 120.83174855 9.3236428 120.84228516 7.83959961 C120.85202866 5.88962318 120.85202866 5.88962318 120.86196899 3.9002533 C121 1 121 1 122 0 C123.47354348 -0.09304018 124.95150591 -0.11746265 126.42797852 -0.11352539 C127.36887833 -0.11344986 128.30977814 -0.11337433 129.27919006 -0.11329651 C130.30209641 -0.10813522 131.32500275 -0.10297394 132.37890625 -0.09765625 C133.42070541 -0.0962413 134.46250458 -0.09482635 135.53587341 -0.09336853 C138.87811094 -0.0877508 142.22028257 -0.0751953 145.5625 -0.0625 C147.82226466 -0.05748728 150.08203037 -0.05292398 152.34179688 -0.04882812 C157.89455391 -0.03777561 163.44727225 -0.02102024 169 0 C169.04658639 9.68463383 169.08200169 19.36922838 169.10362434 29.05395031 C169.11400837 33.55220215 169.12806779 38.05037664 169.15087891 42.54858398 C169.17280107 46.89931803 169.18460895 51.24997825 169.18975449 55.60076332 C169.1934158 57.25072706 169.20056407 58.90068731 169.21146011 60.55061913 C169.37730035 86.73282935 163.55307475 108.54466122 145.13671875 127.96484375 C135.79880591 136.78287279 122.56934455 143.57078363 110 146 C109.98969254 146.6742955 109.97938507 147.348591 109.96876526 148.0433197 C109.86094231 155.03443582 109.74632557 162.02541667 109.62768555 169.01635742 C109.58425876 171.62863344 109.54258962 174.24093928 109.50268555 176.85327148 C109.44516993 180.59888719 109.38142236 184.34435169 109.31640625 188.08984375 C109.29969376 189.26586655 109.28298126 190.44188934 109.26576233 191.65354919 C109.2358445 193.27511681 109.2358445 193.27511681 109.20532227 194.92944336 C109.18977798 195.88652695 109.1742337 196.84361053 109.15821838 197.82969666 C109 200 109 200 108 201 C106.53194708 201.09822744 105.0592254 201.1279837 103.58789062 201.12939453 C102.65021851 201.13254669 101.71254639 201.13569885 100.74645996 201.13894653 C99.72669067 201.1369223 98.70692139 201.13489807 97.65625 201.1328125 C96.09710876 201.13424759 96.09710876 201.13424759 94.50646973 201.13571167 C92.30395446 201.13639363 90.10143721 201.13453827 87.89892578 201.13037109 C84.51460281 201.12502308 81.13041256 201.13031559 77.74609375 201.13671875 C75.61197887 201.13605797 73.47786408 201.13477681 71.34375 201.1328125 C70.32398071 201.13483673 69.30421143 201.13686096 68.25354004 201.13894653 C66.84703186 201.13421829 66.84703186 201.13421829 65.41210938 201.12939453 C64.58239624 201.12859894 63.75268311 201.12780334 62.89782715 201.12698364 C61 201 61 201 60 200 C59.90646837 198.31198015 59.88255209 196.62004793 59.88647461 194.92944336 C59.88655014 193.84839828 59.88662567 192.76735321 59.88670349 191.65354919 C59.89186478 190.4775264 59.89702606 189.3015036 59.90234375 188.08984375 C59.9037587 186.89267227 59.90517365 185.69550079 59.90663147 184.46205139 C59.91225021 180.62050934 59.92480589 176.77902457 59.9375 172.9375 C59.94251259 170.34049563 59.94707591 167.74349035 59.95117188 165.14648438 C59.96222573 158.76430321 59.97898208 152.3821557 60 146 C59.25370331 145.80265259 58.50740662 145.60530518 57.73849487 145.40197754 C56.2628154 145.00673889 56.2628154 145.00673889 54.75732422 144.60351562 C53.78415253 144.34429321 52.81098083 144.0850708 51.80831909 143.81799316 C34.82041912 138.86984248 20.1199685 127.03369808 11 112 C3.71575333 98.4055629 -0.19464251 83.69486284 -0.11352539 68.22875977 C-0.11367142 67.48646622 -0.11381744 66.74417267 -0.1139679 65.97938538 C-0.11327674 63.55002824 -0.10552203 61.12074983 -0.09765625 58.69140625 C-0.09578923 56.99747255 -0.09436667 55.30353831 -0.09336853 53.60960388 C-0.08956568 49.16926562 -0.07975462 44.7289605 -0.06866455 40.28863525 C-0.05659531 34.95128311 -0.05203756 29.61391983 -0.04621124 24.27655792 C-0.03654154 16.18434896 -0.0173694 8.09221259 0 0 Z " fill="#212121" transform="translate(642,424)"/>
<path d="M0 0 C2.74431341 0.01864174 5.48829494 0.02050634 8.23266602 0.02026367 C9.97941375 0.02516676 11.72615921 0.03098972 13.47290039 0.0378418 C14.70229591 0.03951103 14.70229591 0.03951103 15.95652771 0.04121399 C21.64187972 0.08963363 21.64187972 0.08963363 22.75805664 1.20581055 C22.84673963 4.16286375 22.8732596 7.09646111 22.85571289 10.0534668 C22.85359047 11.38310707 22.85359047 11.38310707 22.85142517 12.73960876 C22.8458088 15.58254309 22.83325355 18.42539986 22.82055664 21.26831055 C22.81554375 23.19083545 22.81098048 25.11336159 22.80688477 27.03588867 C22.79583405 31.75922604 22.77855847 36.48250513 22.75805664 41.20581055 C21.74606201 41.22039307 20.73406738 41.23497559 19.69140625 41.25 C15.86100555 41.3088957 12.03113822 41.38610258 8.20117188 41.46826172 C6.55770661 41.50108939 4.91413998 41.5292455 3.27050781 41.55224609 C-16.79586795 41.84039753 -35.02171372 44.23531762 -50.12866211 58.8972168 C-61.7237138 71.56389988 -65.82848669 87.38339577 -65.55444336 104.23706055 C-64.29005162 120.29483565 -58.30674884 135.2429873 -46.24194336 146.20581055 C-30.74885569 158.16417896 -13.40630011 159.5623008 5.44555664 159.26831055 C7.6201735 159.24060689 9.79472467 159.21598648 11.96943665 159.1971283 C13.91296493 159.17943895 15.85639747 159.15201412 17.79980469 159.12402344 C20.75805664 159.20581055 20.75805664 159.20581055 22.75805664 160.20581055 C22.78270369 165.88411133 22.80089126 171.56238124 22.81298828 177.24072266 C22.8180292 179.1739964 22.82486183 181.10726631 22.83349609 183.04052734 C22.84557229 185.81307926 22.85128721 188.58558096 22.85571289 191.3581543 C22.86087418 192.22794418 22.86603546 193.09773407 22.87135315 193.99388123 C22.87154849 196.06486869 22.82013832 198.13575379 22.75805664 200.20581055 C20.7500317 202.21383549 16.69813348 201.36981517 13.94555664 201.3737793 C13.14384033 201.3771077 12.34212402 201.3804361 11.51611328 201.38386536 C9.8044492 201.38894678 8.09277514 201.39127331 6.38110352 201.39111328 C3.82428176 201.39325507 1.26792425 201.41126922 -1.28881836 201.43041992 C-33.64247661 201.54314221 -64.45247169 194.59552503 -88.24194336 171.20581055 C-107.39211043 150.89210529 -115.91434365 124.60869732 -115.42553711 96.94799805 C-114.33212616 74.66102584 -107.61562179 51.95579923 -92.24194336 35.20581055 C-91.79898926 34.71661133 -91.35603516 34.22741211 -90.8996582 33.72338867 C-77.72294116 19.33308347 -62.25839609 9.90139937 -43.42944336 4.45581055 C-42.41865723 4.15755371 -42.41865723 4.15755371 -41.38745117 3.85327148 C-27.81422139 0.17784512 -13.95858596 -0.09843494 0 0 Z " fill="#212121" transform="translate(229.241943359375,636.794189453125)"/>
<path d="M0 0 C3.5625 0.3125 3.5625 0.3125 5.4375 1.4375 C6.96680823 3.98634706 7.23720941 6.38488473 7.5625 9.3125 C5.9125 9.3125 4.2625 9.3125 2.5625 9.3125 C2.2325 7.9925 1.9025 6.6725 1.5625 5.3125 C0.9025 5.3125 0.2425 5.3125 -0.4375 5.3125 C-0.4375 10.2625 -0.4375 15.2125 -0.4375 20.3125 C0.2225 20.3125 0.8825 20.3125 1.5625 20.3125 C1.8925 18.6625 2.2225 17.0125 2.5625 15.3125 C4.2125 14.9825 5.8625 14.6525 7.5625 14.3125 C7.69527344 13.46945312 7.82804688 12.62640625 7.96484375 11.7578125 C8.14144531 10.66210938 8.31804688 9.56640625 8.5 8.4375 C8.67402344 7.34695313 8.84804688 6.25640625 9.02734375 5.1328125 C9.5625 2.3125 9.5625 2.3125 10.5625 0.3125 C12.5425 0.3125 14.5225 0.3125 16.5625 0.3125 C17.99273178 4.98459049 18.96630045 9.44353697 19.5625 14.3125 C19.65337891 12.92224609 19.65337891 12.92224609 19.74609375 11.50390625 C19.82988281 10.30636719 19.91367187 9.10882812 20 7.875 C20.08121094 6.68003906 20.16242187 5.48507812 20.24609375 4.25390625 C20.5625 1.3125 20.5625 1.3125 21.5625 0.3125 C23.00539787 0.21954185 24.45279785 0.19503487 25.89868164 0.19897461 C27.28000023 0.19908791 27.28000023 0.19908791 28.68922424 0.19920349 C29.69025681 0.20436478 30.69128937 0.20952606 31.72265625 0.21484375 C32.74225937 0.2162587 33.76186249 0.21767365 34.81236267 0.21913147 C38.08327107 0.22474903 41.35411213 0.2373045 44.625 0.25 C46.83658756 0.25501274 49.04817618 0.25957604 51.25976562 0.26367188 C56.69403357 0.27472416 62.12826197 0.29147937 67.5625 0.3125 C68.5525 2.2925 68.5525 2.2925 69.5625 4.3125 C70.2225 2.9925 70.8825 1.6725 71.5625 0.3125 C76.8425 0.3125 82.1225 0.3125 87.5625 0.3125 C88.0575 2.2925 88.0575 2.2925 88.5625 4.3125 C87.5625 5.3125 87.5625 5.3125 84.5 5.375 C83.530625 5.354375 82.56125 5.33375 81.5625 5.3125 C81.5625 6.9625 81.5625 8.6125 81.5625 10.3125 C83.2125 10.3125 84.8625 10.3125 86.5625 10.3125 C86.5625 11.9625 86.5625 13.6125 86.5625 15.3125 C84.9125 15.3125 83.2625 15.3125 81.5625 15.3125 C81.5625 16.9625 81.5625 18.6125 81.5625 20.3125 C83.5425 20.3125 85.5225 20.3125 87.5625 20.3125 C88.125 22.25 88.125 22.25 88.5625 24.3125 C87.5625 25.3125 87.5625 25.3125 83.74609375 25.41015625 C82.16403318 25.40348089 80.58198841 25.39151875 79 25.375 C78.19369141 25.37048828 77.38738281 25.36597656 76.55664062 25.36132812 C74.55856244 25.34950518 72.56052217 25.33156914 70.5625 25.3125 C69.5725 22.3425 68.5825 19.3725 67.5625 16.3125 C67.2325 19.2825 66.9025 22.2525 66.5625 25.3125 C62.91668313 25.34137512 59.27089537 25.35925585 55.625 25.375 C54.06362305 25.38756836 54.06362305 25.38756836 52.47070312 25.40039062 C50.98666992 25.40522461 50.98666992 25.40522461 49.47265625 25.41015625 C48.09799194 25.41801147 48.09799194 25.41801147 46.69555664 25.42602539 C44.5625 25.3125 44.5625 25.3125 43.5625 24.3125 C43.40629445 22.89922053 43.31193827 21.4789541 43.24609375 20.05859375 C43.20419922 19.20458984 43.16230469 18.35058594 43.11914062 17.47070312 C43.07982422 16.57287109 43.04050781 15.67503906 43 14.75 C42.95681641 13.84830078 42.91363281 12.94660156 42.86914062 12.01757812 C42.76271858 9.78271515 42.66070012 7.54773692 42.5625 5.3125 C40.9125 5.3125 39.2625 5.3125 37.5625 5.3125 C37.5625 6.9625 37.5625 8.6125 37.5625 10.3125 C40.0375 10.8075 40.0375 10.8075 42.5625 11.3125 C42.2325 12.6325 41.9025 13.9525 41.5625 15.3125 C40.2425 15.3125 38.9225 15.3125 37.5625 15.3125 C37.5625 18.2825 37.5625 21.2525 37.5625 24.3125 C35.9125 24.6425 34.2625 24.9725 32.5625 25.3125 C32.5625 22.0125 32.5625 18.7125 32.5625 15.3125 C30.5825 15.6425 28.6025 15.9725 26.5625 16.3125 C26.583125 17.611875 26.60375 18.91125 26.625 20.25 C26.64649454 21.60415633 26.63398199 22.96006083 26.5625 24.3125 C25.5625 25.3125 25.5625 25.3125 23.27734375 25.41015625 C21.90255859 25.39275391 21.90255859 25.39275391 20.5 25.375 C19.58089844 25.36597656 18.66179688 25.35695313 17.71484375 25.34765625 C17.00457031 25.33605469 16.29429687 25.32445312 15.5625 25.3125 C15.2325 23.9925 14.9025 22.6725 14.5625 21.3125 C13.9025 21.3125 13.2425 21.3125 12.5625 21.3125 C11.9025 22.6325 11.2425 23.9525 10.5625 25.3125 C9.758125 25.126875 8.95375 24.94125 8.125 24.75 C7.279375 24.605625 6.43375 24.46125 5.5625 24.3125 C5.2325 24.6425 4.9025 24.9725 4.5625 25.3125 C1.89191149 25.45365161 -0.76182238 25.35497107 -3.4375 25.3125 C-6.63439736 20.12476992 -6.74631766 16.40801909 -6.25 10.5625 C-6.20552734 9.79550781 -6.16105469 9.02851562 -6.11523438 8.23828125 C-5.56486253 0.50589659 -5.56486253 0.50589659 0 0 Z M75.5625 2.3125 C75.5625 8.5825 75.5625 14.8525 75.5625 21.3125 C75.8925 21.3125 76.2225 21.3125 76.5625 21.3125 C76.5625 15.0425 76.5625 8.7725 76.5625 2.3125 C76.2325 2.3125 75.9025 2.3125 75.5625 2.3125 Z M26.5625 5.3125 C26.2325 6.6325 25.9025 7.9525 25.5625 9.3125 C27.5425 9.9725 29.5225 10.6325 31.5625 11.3125 C31.8925 9.3325 32.2225 7.3525 32.5625 5.3125 C30.5825 5.3125 28.6025 5.3125 26.5625 5.3125 Z M48.5625 5.3125 C48.5625 6.9625 48.5625 8.6125 48.5625 10.3125 C51.0375 10.8075 51.0375 10.8075 53.5625 11.3125 C53.5625 12.3025 53.5625 13.2925 53.5625 14.3125 C51.9125 14.6425 50.2625 14.9725 48.5625 15.3125 C48.5625 16.9625 48.5625 18.6125 48.5625 20.3125 C50.8725 20.6425 53.1825 20.9725 55.5625 21.3125 C55.5625 15.7025 55.5625 10.0925 55.5625 4.3125 C53.22390564 4.3125 50.86219577 4.92106242 48.5625 5.3125 Z M61.5625 6.3125 C61.5625 11.2625 61.5625 16.2125 61.5625 21.3125 C61.8925 21.3125 62.2225 21.3125 62.5625 21.3125 C62.5625 16.3625 62.5625 11.4125 62.5625 6.3125 C62.2325 6.3125 61.9025 6.3125 61.5625 6.3125 Z M12.5625 12.3125 C12.5625 13.6325 12.5625 14.9525 12.5625 16.3125 C13.2225 15.9825 13.8825 15.6525 14.5625 15.3125 C13.9025 14.3225 13.2425 13.3325 12.5625 12.3125 Z M6.5625 17.3125 C6.5625 18.9625 6.5625 20.6125 6.5625 22.3125 C6.8925 22.3125 7.2225 22.3125 7.5625 22.3125 C7.5625 20.6625 7.5625 19.0125 7.5625 17.3125 C7.2325 17.3125 6.9025 17.3125 6.5625 17.3125 Z " fill="#242424" transform="translate(596.4375,859.6875)"/>
<path d="M0 0 C4.62 0 9.24 0 14 0 C14.66 1.32 15.32 2.64 16 4 C16.66 2.68 17.32 1.36 18 0 C23.28 0 28.56 0 34 0 C34.495 1.98 34.495 1.98 35 4 C34 5 34 5 30.9375 5.0625 C29.968125 5.041875 28.99875 5.02125 28 5 C28 6.65 28 8.3 28 10 C29.65 10 31.3 10 33 10 C33 11.65 33 13.3 33 15 C31.35 15 29.7 15 28 15 C28 16.65 28 18.3 28 20 C29.98 20 31.96 20 34 20 C34.5625 21.9375 34.5625 21.9375 35 24 C34 25 34 25 30.18359375 25.09765625 C28.60153318 25.09098089 27.01948841 25.07901875 25.4375 25.0625 C24.63119141 25.05798828 23.82488281 25.05347656 22.99414062 25.04882812 C20.99606244 25.03700518 18.99802217 25.01906914 17 25 C16.01 22.03 15.02 19.06 14 16 C13.67 18.97 13.34 21.94 13 25 C8.05 25 3.1 25 -2 25 C-1.01 24.67 -0.02 24.34 1 24 C1.02909763 20.75001888 1.04683161 17.50007143 1.0625 14.25 C1.07087891 13.32960938 1.07925781 12.40921875 1.08789062 11.4609375 C1.09111328 10.57148437 1.09433594 9.68203125 1.09765625 8.765625 C1.10551147 7.54020996 1.10551147 7.54020996 1.11352539 6.29003906 C1.05865863 3.68439064 1.05865863 3.68439064 0 0 Z M22 2 C22 8.27 22 14.54 22 21 C22.33 21 22.66 21 23 21 C23 14.73 23 8.46 23 2 C22.67 2 22.34 2 22 2 Z M8 6 C8 10.95 8 15.9 8 21 C8.33 21 8.66 21 9 21 C9 16.05 9 11.1 9 6 C8.67 6 8.34 6 8 6 Z " fill="#2D2D2D" transform="translate(650,860)"/>
<path d="M0 0 C0.33 0.99 0.66 1.98 1 3 C1.66 3 2.32 3 3 3 C3.33 2.01 3.66 1.02 4 0 C10.625 -1.25 10.625 -1.25 14 1 C15.27346955 4.82040866 15.26233806 8.45464226 15.3125 12.4375 C15.34150391 13.20126953 15.37050781 13.96503906 15.40039062 14.75195312 C15.4428559 18.50523028 15.42102924 20.40377123 13.20703125 23.5390625 C11 25 11 25 7.375 24.9375 C4 24 4 24 2 21 C1.2265625 22.0209375 1.2265625 22.0209375 0.4375 23.0625 C-2 25 -2 25 -5.625 24.9375 C-9 24 -9 24 -11 21 C-11.25878906 19.0546875 -11.25878906 19.0546875 -11.265625 16.875 C-11.26820313 16.08609375 -11.27078125 15.2971875 -11.2734375 14.484375 C-11.26570312 13.66453125 -11.25796875 12.8446875 -11.25 12 C-11.25773438 11.18015625 -11.26546875 10.3603125 -11.2734375 9.515625 C-11.27085937 8.72671875 -11.26828125 7.9378125 -11.265625 7.125 C-11.26336914 6.40570312 -11.26111328 5.68640625 -11.25878906 4.9453125 C-11 3 -11 3 -9 0 C-5.52176885 -1.15941038 -3.54104422 -0.70820884 0 0 Z M-6 4 C-6 9.28 -6 14.56 -6 20 C-5.01 19.67 -4.02 19.34 -3 19 C-3 14.38 -3 9.76 -3 5 C-3.99 4.67 -4.98 4.34 -6 4 Z M7 4 C7 8.95 7 13.9 7 19 C7.99 19.33 8.98 19.66 10 20 C10 14.72 10 9.44 10 4 C9.01 4 8.02 4 7 4 Z " fill="#232323" transform="translate(638,888)"/>
<path d="M0 0 C1.37478516 0.01740234 1.37478516 0.01740234 2.77734375 0.03515625 C3.69644531 0.04417969 4.61554687 0.05320312 5.5625 0.0625 C6.27277344 0.07410156 6.98304688 0.08570313 7.71484375 0.09765625 C7.71484375 1.74765625 7.71484375 3.39765625 7.71484375 5.09765625 C4.71484375 6.09765625 4.71484375 6.09765625 1.71484375 6.09765625 C1.38484375 6.75765625 1.05484375 7.41765625 0.71484375 8.09765625 C1.66359375 8.03578125 2.61234375 7.97390625 3.58984375 7.91015625 C4.62109375 7.97203125 5.65234375 8.03390625 6.71484375 8.09765625 C9.68100609 12.54689977 9.34751917 16.88003674 8.71484375 22.09765625 C7.02734375 24.78515625 7.02734375 24.78515625 4.71484375 26.09765625 C2.15234375 26.53515625 2.15234375 26.53515625 -0.28515625 26.09765625 C-2.53792311 24.42661824 -3.21536456 23.55665611 -3.64160156 20.75341797 C-3.63225586 19.85381348 -3.62291016 18.95420898 -3.61328125 18.02734375 C-3.608125 17.04894531 -3.60296875 16.07054687 -3.59765625 15.0625 C-3.57703125 14.04285156 -3.55640625 13.02320313 -3.53515625 11.97265625 C-3.53 10.94527344 -3.52484375 9.91789063 -3.51953125 8.859375 C-3.42745302 0.14647235 -3.42745302 0.14647235 0 0 Z M1.71484375 13.09765625 C0.35865876 14.2229973 0.35865876 14.2229973 0.65234375 17.16015625 C0.67296875 18.12953125 0.69359375 19.09890625 0.71484375 20.09765625 C1.70484375 20.09765625 2.69484375 20.09765625 3.71484375 20.09765625 C3.71484375 17.78765625 3.71484375 15.47765625 3.71484375 13.09765625 C3.05484375 13.09765625 2.39484375 13.09765625 1.71484375 13.09765625 Z " fill="#252525" transform="translate(657.28515625,886.90234375)"/>
<path d="M0 0 C2.35951179 2.35951179 2.34409415 3.01925635 2.4375 6.25 C2.35403517 11.44151258 0.54883054 13.36461262 -3 17 C-3.33 17.99 -3.66 18.98 -4 20 C-2.02 20 -0.04 20 2 20 C2.33 21.32 2.66 22.64 3 24 C0.49860398 25.25069801 -1.27392691 25.13302467 -4.0625 25.125 C-5.41021484 25.12886719 -5.41021484 25.12886719 -6.78515625 25.1328125 C-9 25 -9 25 -10 24 C-9.88839325 17.63841525 -8.36722551 14.51853036 -4.1796875 9.76171875 C-3.79039062 9.18035156 -3.40109375 8.59898437 -3 8 C-3.33 7.01 -3.66 6.02 -4 5 C-4.66 6.32 -5.32 7.64 -6 9 C-7.32 8.67 -8.64 8.34 -10 8 C-9.75 4.625 -9.75 4.625 -9 1 C-6.02630528 -1.54888119 -3.60280512 -1.13772793 0 0 Z " fill="#252525" transform="translate(624,888)"/>
<path d="M0 0 C1.65 0 3.3 0 5 0 C5.33 0.99 5.66 1.98 6 3 C6.33 2.01 6.66 1.02 7 0 C8.32 0.33 9.64 0.66 11 1 C11 8.26 11 15.52 11 23 C9.35 22.67 7.7 22.34 6 22 C5.34 19.69 4.68 17.38 4 15 C3.34 17.64 2.68 20.28 2 23 C1.34 23 0.68 23 0 23 C0 15.41 0 7.82 0 0 Z " fill="#242424" transform="translate(660,861)"/>
<path d="M0 0 C5.28 0 10.56 0 16 0 C16 0.33 16 0.66 16 1 C12.7 1 9.4 1 6 1 C6 8.59 6 16.18 6 24 C6.66 24.33 7.32 24.66 8 25 C5.03 25 2.06 25 -1 25 C-0.01 24.34 0.98 23.68 2 23 C2.44829191 20.81007486 2.44829191 20.81007486 2.36328125 18.28125 C2.36263672 17.34925781 2.36199219 16.41726563 2.36132812 15.45703125 C2.3371582 13.99330078 2.3371582 13.99330078 2.3125 12.5 C2.31572266 11.52417969 2.31894531 10.54835938 2.32226562 9.54296875 C2.61520829 4.23119638 2.61520829 4.23119638 0 0 Z M4 2 C4 8.27 4 14.54 4 21 C4.33 21 4.66 21 5 21 C5 14.73 5 8.46 5 2 C4.67 2 4.34 2 4 2 Z " fill="#3C3C3B" transform="translate(668,860)"/>
<path d="M0 0 C1.32 0.33 2.64 0.66 4 1 C4 8.26 4 15.52 4 23 C2.68 23 1.36 23 0 23 C0 15.41 0 7.82 0 0 Z " fill="#222222" transform="translate(653,861)"/>
<path d="M0 0 C1.98 0 3.96 0 6 0 C5.34 0.66 4.68 1.32 4 2 C3.75560731 4.10102021 3.75560731 4.10102021 3.875 6.5 C3.89046875 7.386875 3.9059375 8.27375 3.921875 9.1875 C3.94765625 10.115625 3.9734375 11.04375 4 12 C4.05091944 13.83309968 4.09301986 15.66647212 4.125 17.5 C4.15980469 18.72203125 4.15980469 18.72203125 4.1953125 19.96875 C4 22 4 22 2 24 C1.97494385 23.41508789 1.9498877 22.83017578 1.92407227 22.22753906 C1.80777038 19.56815529 1.68519933 16.90909597 1.5625 14.25 C1.50352539 12.86941406 1.50352539 12.86941406 1.44335938 11.4609375 C1.40146484 10.57148437 1.35957031 9.68203125 1.31640625 8.765625 C1.27974854 7.94868164 1.24309082 7.13173828 1.20532227 6.29003906 C1.00865725 4.0965577 0.59699406 2.11603587 0 0 Z " fill="#2B2A2A" transform="translate(638,860)"/>
<path d="M0 0 C0.66 0.33 1.32 0.66 2 1 C2 2.65 2 4.3 2 6 C1.67 5.01 1.34 4.02 1 3 C0.34 3 -0.32 3 -1 3 C-0.67 3.99 -0.34 4.98 0 6 C-0.27769908 8.3406065 -0.60539977 10.67624308 -1 13 C-0.01 12.67 0.98 12.34 2 12 C2.36923077 16.55384615 2.36923077 16.55384615 0.5 18.8125 C0.005 19.204375 -0.49 19.59625 -1 20 C-1.66 19.67 -2.32 19.34 -3 19 C-2.505 10.09 -2.505 10.09 -2 1 C-1.34 0.67 -0.68 0.34 0 0 Z " fill="#2B2B2B" transform="translate(640,891)"/>
<path d="M0 0 C1.98 0 3.96 0 6 0 C5.01 0.495 5.01 0.495 4 1 C4 8.26 4 15.52 4 23 C3.67 23 3.34 23 3 23 C2.98018066 22.44538086 2.96036133 21.89076172 2.93994141 21.31933594 C2.84442349 18.79576307 2.73485433 16.27298776 2.625 13.75 C2.5940625 12.87730469 2.563125 12.00460937 2.53125 11.10546875 C2.49257813 10.26113281 2.45390625 9.41679688 2.4140625 8.546875 C2.3826416 7.77182617 2.3512207 6.99677734 2.31884766 6.19824219 C1.96973494 3.79134258 1.19448896 2.10397705 0 0 Z " fill="#373736" transform="translate(626,860)"/>
<path d="M0 0 C0.33 1.32 0.66 2.64 1 4 C2.98 4 4.96 4 7 4 C7.33 5.32 7.66 6.64 8 8 C5.36 7.34 2.72 6.68 0 6 C0 4.02 0 2.04 0 0 Z " fill="#313131" transform="translate(677,876)"/>
<path d="M0 0 C0 1.98 0 3.96 0 6 C-1.65 6 -3.3 6 -5 6 C-4.34 5.67 -3.68 5.34 -3 5 C-3 4.01 -3 3.02 -3 2 C-3.99 1.67 -4.98 1.34 -6 1 C-1.125 0 -1.125 0 0 0 Z " fill="#292929" transform="translate(629,869)"/>
</svg>
